IKResults-ET2
version=1
nRows=17
nColumns=24
inDegrees=yes

Units are S.I. units (second, meters, Newtons, ...)
If the header above contains a line with 'inDegrees', this indicates whether rotational values are in degrees (yes) or radians (no).

endheader
time	pelvis_tilt	pelvis_list	pelvis_rotation	pelvis_tx	pelvis_ty	pelvis_tz	hip_flexion_r	hip_adduction_r	hip_rotation_r	knee_angle_r	ankle_angle_r	subtalar_angle_r	mtp_angle_r	hip_flexion_l	hip_adduction_l	hip_rotation_l	knee_angle_l	ankle_angle_l	subtalar_angle_l	mtp_angle_l	lumbar_extension	lumbar_bending	lumbar_rotation
      3.36000000	      1.13725539	      0.74735952	    181.11860806	      2.85640550	      0.99320587	     -0.15953595	    172.05664058	   -186.27837730	   -176.88193739	    -10.90083966	     18.04111074	      6.93642869	      0.00000000	     33.70239827	     -1.52092214	     -0.93910553	    -25.30891204	     13.28927578	      2.32517730	      0.00000000	    -17.60504023	     -1.18072189	     10.46580686
      3.37000000	      1.36709171	      0.67353183	    180.65148623	      2.84202960	      0.99080679	     -0.15901254	    171.58536119	   -186.10788615	   -176.72089401	    -11.33022065	     18.56485027	      7.15084715	      0.00000000	     33.87367669	     -1.38913923	     -0.76963812	    -22.01944891	     13.87757703	      3.45346466	      0.00000000	    -17.43549352	     -1.32806641	     10.76009916
      3.38000000	      1.65491392	      0.67593725	    180.21341100	      2.82781050	      0.98815619	     -0.15860505	    171.25086918	   -186.03688042	   -176.56338898	    -11.88041745	     19.03654201	      7.28159404	      0.00000000	     34.09898656	     -1.32095704	     -0.25642513	    -18.89791684	     14.42527030	      4.57575714	      0.00000000	    -17.21872908	     -1.42289258	     11.07970191
      3.39000000	      1.91545606	      0.61663013	    179.76167191	      2.81325047	      0.98562596	     -0.15801799	    170.90920364	   -185.86878131	   -176.50843752	    -12.49693193	     19.51671039	      7.45278240	      0.00000000	     34.25307305	     -1.17975796	      0.51002733	    -15.99783500	     14.82113924	      5.17034365	      0.00000000	    -17.02280301	     -1.58115653	     11.41653676
      3.40000000	      2.15026762	      0.55356414	    179.30083251	      2.79854884	      0.98313319	     -0.15738833	    170.58553543	   -185.68498421	   -176.35076807	    -13.18988153	     19.87920944	      7.49162242	      0.00000000	     34.40556169	     -1.05958021	      1.24544701	    -13.50626488	     15.09629400	      5.36519532	      0.00000000	    -16.84009713	     -1.79483971	     11.58608739
      3.41000000	      2.40458808	      0.46728525	    178.64794419	      2.78411890	      0.98060396	     -0.15709805	    170.46429547	   -185.44192568	   -176.13118849	    -14.20515532	     20.36794197	      7.97396733	      0.00000000	     34.62292180	     -1.07278437	      1.24731194	    -11.54817932	     15.35503072	      5.50547808	      0.00000000	    -16.67610434	     -2.01240604	     12.37791844
      3.42000000	      2.59022970	      0.39625176	    178.12214559	      2.76954627	      0.97810507	     -0.15644525	    170.30902546	   -185.20775525	   -175.96896357	    -15.31119544	     20.75229439	      8.23393756	      0.00000000	     34.86173426	     -1.01489349	      0.74545729	    -10.28484333	     15.61171077	      4.99109258	      0.00000000	    -16.60985784	     -2.23872638	     12.91121070
      3.43000000	      2.69812086	      0.34331191	    177.64633088	      2.75440176	      0.97562763	     -0.15565057	    170.04092160	   -185.00811488	   -175.70760856	    -16.40015643	     21.01079499	      8.15532087	      0.00000000	     35.07166271	     -0.96056277	     -0.18558730	     -9.76987313	     15.91598461	      4.64376267	      0.00000000	    -16.56876897	     -2.47633839	     13.11539709
      3.44000000	      2.76750998	      0.32284875	    177.10110485	      2.73912436	      0.97317619	     -0.15509313	    169.80117218	   -184.85804599	   -175.22947732	    -17.67678239	     21.19687876	      7.94374936	      0.00000000	     35.30163223	     -1.00218533	     -1.28130695	    -10.01473106	     16.12724096	      4.59398143	      0.00000000	    -16.57445025	     -2.66592379	     14.11233097
      3.45000000	      2.73789860	      0.30367148	    176.58354667	      2.72362376	      0.97086536	     -0.15452436	    169.50924443	   -184.67089786	   -174.94545588	    -18.94656367	     21.14571822	      7.90126161	      0.00000000	     35.43802270	     -1.04879580	     -2.14754020	    -10.88988435	     16.35776162	      4.98766018	      0.00000000	    -16.69987153	     -2.91707177	     14.54495913
      3.46000000	      2.64654207	      0.25617816	    176.07772114	      2.70772389	      0.96861803	     -0.15405042	    169.15780502	   -184.48554714	   -174.39580444	    -20.39348448	     20.97286749	      7.39634004	      0.00000000	     35.45103555	     -1.07235996	     -2.74100307	    -12.20696527	     16.62988867	      5.43653307	      0.00000000	    -16.83893510	     -3.24637722	     15.00601811
      3.47000000	      2.49672285	      0.17587043	    175.58004020	      2.69141620	      0.96653801	     -0.15369935	    168.79573917	   -184.26215061	   -174.03137347	    -21.89580083	     20.73835695	      7.23128953	      0.00000000	     35.28420305	     -1.03684978	     -3.13829853	    -13.77916021	     16.82465638	      5.38295487	      0.00000000	    -16.99629576	     -3.70831003	     15.19646918
      3.48000000	      2.37320753	     -0.01500970	    175.08499769	      2.67475650	      0.96462788	     -0.15327943	    168.53104676	   -183.87413912	   -173.86064793	    -23.43594167	     20.14680307	      7.25954161	      0.00000000	     35.02986101	     -0.84769223	     -3.19025056	    -15.40489769	     16.66072576	      5.20790200	      0.00000000	    -17.08098042	     -4.25899870	     15.41844451
      3.49000000	      2.29713513	     -0.23980524	    174.56811408	      2.65787032	      0.96274974	     -0.15299335	    168.39906456	   -183.45492298	   -173.80950033	    -25.06544001	     19.33502407	      6.96727260	      0.00000000	     34.66159381	     -0.58280529	     -3.01650058	    -16.57518347	     16.42866964	      4.28896735	      0.00000000	    -17.11106547	     -4.81080324	     16.03516302
      3.50000000	      2.35536537	     -0.54777095	    174.08653695	      2.64083872	      0.96094701	     -0.15262706	    168.52802480	   -182.93538351	   -173.89631217	    -26.84212802	     18.30797293	      6.91969631	      0.00000000	     34.29191309	     -0.21230041	     -2.63527090	    -16.99910458	     15.05727836	      3.34282079	      0.00000000	    -16.89674734	     -5.49977911	     16.30591811
      3.51000000	      2.58241332	     -0.96465072	    173.64569239	      2.62395069	      0.95938297	     -0.15220623	    169.03528038	   -182.25584910	   -174.27333201	    -28.76204420	     16.91990346	      7.22022076	      0.00000000	     34.01262609	      0.22433413	     -2.23890447	    -17.08843928	     12.13748492	      2.07916839	      0.00000000	    -16.48279852	     -6.28641502	     16.42409982
      3.52000000	      2.86027655	     -1.48585013	    173.31797361	      2.60699013	      0.95826854	     -0.15146634	    169.77297865	   -181.42363474	   -174.92572609	    -30.86534037	     15.19194520	      7.66778607	      0.00000000	     33.75784251	      0.80975863	     -1.71264160	    -17.05820200	      8.92491471	      0.63034632	      0.00000000	    -16.01375677	     -7.12230114	     16.34452590
